<svg width="51" height="51" viewBox="0 0 51 51" fill="none" xmlns="http://www.w3.org/2000/svg">
<g id="Tryb_izolacji" clip-path="url(#clip0_451_401)">
<g id="exchange">
<path id="Vector" d="M42.2344 24.3047C46.9359 26.4323 50.2031 31.1578 50.2031 36.6562C50.2031 44.1389 44.1389 50.2031 36.6562 50.2031C33.6759 50.2031 30.9267 49.2389 28.6875 47.6133" stroke="#F20101" stroke-width="2" stroke-linecap="round" stroke-linejoin="round"/>
<path id="Vector_2" d="M27.5161 33.4608C27.7631 34.4808 27.8906 35.5566 27.8906 36.6563C27.8906 44.139 21.8264 50.2032 14.3438 50.2032C6.86109 50.2032 0.796875 44.139 0.796875 36.6563C0.796875 30.8551 4.43859 25.9065 9.5625 23.978" stroke="#F20101" stroke-width="2" stroke-linecap="round" stroke-linejoin="round"/>
<path id="Vector_3" d="M25.5 7.17188L19.9219 15.1406L25.5 23.1094L31.0781 15.1406L25.5 7.17188Z" stroke="#F20101" stroke-width="2" stroke-linecap="round" stroke-linejoin="round"/>
<path id="Vector_4" d="M19.9219 15.1406L25.5 17.5312L31.0781 15.1406" stroke="#F20101" stroke-width="2" stroke-linecap="round" stroke-linejoin="round"/>
<path id="Vector_5" d="M25.5 29.4844C33.4218 29.4844 39.8438 23.0625 39.8438 15.1406C39.8438 7.21879 33.4218 0.796875 25.5 0.796875C17.5782 0.796875 11.1562 7.21879 11.1562 15.1406C11.1562 23.0625 17.5782 29.4844 25.5 29.4844Z" stroke="#F20101" stroke-width="2" stroke-linecap="round" stroke-linejoin="round"/>
</g>
</g>
<defs>
<clipPath id="clip0_451_401">
<rect width="51" height="51" fill="white"/>
</clipPath>
</defs>
</svg>
