<svg width="48" height="48" viewBox="0 0 48 48" fill="none" xmlns="http://www.w3.org/2000/svg">
<g id="Tryb_izolacji" clip-path="url(#clip0_451_391)">
<g id="exchange">
<path id="Vector" d="M13.6124 44.3025C10.6799 47.235 5.87992 47.235 2.94742 44.3025C0.0149219 41.37 0.0149219 36.57 2.94742 33.6375" stroke="#F20101" stroke-width="2" stroke-linecap="round" stroke-linejoin="round"/>
<path id="Vector_2" d="M14.25 43.5H10.5" stroke="#F20101" stroke-width="2" stroke-linecap="round" stroke-linejoin="round"/>
<path id="Vector_3" d="M14.25 47.25V43.5" stroke="#F20101" stroke-width="2" stroke-linecap="round" stroke-linejoin="round"/>
<path id="Vector_4" d="M34.3875 3.69742C37.32 0.764922 42.12 0.764922 45.0525 3.69742C47.985 6.62992 47.985 11.4299 45.0525 14.3624" stroke="#F20101" stroke-width="2" stroke-linecap="round" stroke-linejoin="round"/>
<path id="Vector_5" d="M33.75 0.75V4.5" stroke="#F20101" stroke-width="2" stroke-linecap="round" stroke-linejoin="round"/>
<path id="Vector_6" d="M37.5 4.5H33.75" stroke="#F20101" stroke-width="2" stroke-linecap="round" stroke-linejoin="round"/>
<path id="Vector_7" d="M31.5 47.25C40.1985 47.25 47.25 40.1985 47.25 31.5C47.25 22.8015 40.1985 15.75 31.5 15.75C22.8015 15.75 15.75 22.8015 15.75 31.5C15.75 40.1985 22.8015 47.25 31.5 47.25Z" stroke="#F20101" stroke-width="2" stroke-linecap="round" stroke-linejoin="round"/>
<path id="Vector_8" d="M31.3352 11.2575C29.1752 5.1375 23.3552 0.75 16.5002 0.75C7.80024 0.75 0.750244 7.8 0.750244 16.5C0.750244 23.355 5.13774 29.175 11.2577 31.335" stroke="#F20101" stroke-width="2" stroke-linecap="round" stroke-linejoin="round"/>
</g>
</g>
<defs>
<clipPath id="clip0_451_391">
<rect width="48" height="48" fill="white"/>
</clipPath>
</defs>
</svg>
