<svg width="44" height="44" viewBox="0 0 44 44" fill="none" xmlns="http://www.w3.org/2000/svg">
<g id="Tryb_izolacji" clip-path="url(#clip0_451_408)">
<g id="blockchain-distributed_ledger">
<path id="Vector" d="M18.5625 9.625V17.1875C18.5625 17.9438 17.9438 18.5625 17.1875 18.5625H13.75" stroke="#F20101" stroke-width="2" stroke-linecap="square" stroke-linejoin="round"/>
<path id="Vector_2" d="M9.625 18.5625H2.0625C1.30625 18.5625 0.6875 17.9438 0.6875 17.1875V2.0625C0.6875 1.30625 1.30625 0.6875 2.0625 0.6875H17.1875C17.9438 0.6875 18.5625 1.30625 18.5625 2.0625V5.5" stroke="#F20101" stroke-width="2" stroke-linecap="square" stroke-linejoin="round"/>
<path id="Vector_3" d="M25.4375 9.625V2.0625C25.4375 1.30625 26.0562 0.6875 26.8125 0.6875H41.9375C42.6938 0.6875 43.3125 1.30625 43.3125 2.0625V17.1875C43.3125 17.9438 42.6938 18.5625 41.9375 18.5625H38.5" stroke="#F20101" stroke-width="2" stroke-linecap="square" stroke-linejoin="round"/>
<path id="Vector_4" d="M34.375 18.5625H26.8125C26.0562 18.5625 25.4375 17.9438 25.4375 17.1875V13.75" stroke="#F20101" stroke-width="2" stroke-linecap="square" stroke-linejoin="round"/>
<path id="Vector_5" d="M18.5625 38.5V41.9375C18.5625 42.6938 17.9438 43.3125 17.1875 43.3125H2.0625C1.30625 43.3125 0.6875 42.6938 0.6875 41.9375V26.8125C0.6875 26.0562 1.30625 25.4375 2.0625 25.4375H5.5" stroke="#F20101" stroke-width="2" stroke-linecap="square" stroke-linejoin="round"/>
<path id="Vector_6" d="M9.625 25.4375H17.1875C17.9438 25.4375 18.5625 26.0562 18.5625 26.8125V34.375" stroke="#F20101" stroke-width="2" stroke-linecap="square" stroke-linejoin="round"/>
<path id="Vector_7" d="M34.375 25.4375H41.9375C42.6938 25.4375 43.3125 26.0562 43.3125 26.8125V41.9375C43.3125 42.6938 42.6938 43.3125 41.9375 43.3125H26.8125C26.0562 43.3125 25.4375 42.6938 25.4375 41.9375V34.375" stroke="#F20101" stroke-width="2" stroke-linecap="square" stroke-linejoin="round"/>
<path id="Vector_8" d="M25.4375 30.25V26.8125C25.4375 26.0562 26.0562 25.4375 26.8125 25.4375H30.25" stroke="#F20101" stroke-width="2" stroke-linecap="square" stroke-linejoin="round"/>
<path id="Vector_9" d="M9.625 30.9375V13.0625" stroke="#F20101" stroke-width="2" stroke-linecap="square" stroke-linejoin="round"/>
<path id="Vector_10" d="M30.9375 34.375H13.0625" stroke="#F20101" stroke-width="2" stroke-linecap="square" stroke-linejoin="round"/>
<path id="Vector_11" d="M34.375 13.0625V30.9375" stroke="#F20101" stroke-width="2" stroke-linecap="square" stroke-linejoin="round"/>
<path id="Vector_12" d="M13.0625 9.625H30.9375" stroke="#F20101" stroke-width="2" stroke-linecap="square" stroke-linejoin="round"/>
<path id="Vector_13" d="M34.375 13.0625C36.2735 13.0625 37.8125 11.5235 37.8125 9.625C37.8125 7.72652 36.2735 6.1875 34.375 6.1875C32.4765 6.1875 30.9375 7.72652 30.9375 9.625C30.9375 11.5235 32.4765 13.0625 34.375 13.0625Z" stroke="#F20101" stroke-width="2" stroke-linecap="square" stroke-linejoin="round"/>
<path id="Vector_14" d="M9.625 13.0625C11.5235 13.0625 13.0625 11.5235 13.0625 9.625C13.0625 7.72652 11.5235 6.1875 9.625 6.1875C7.72652 6.1875 6.1875 7.72652 6.1875 9.625C6.1875 11.5235 7.72652 13.0625 9.625 13.0625Z" stroke="#F20101" stroke-width="2" stroke-linecap="square" stroke-linejoin="round"/>
<path id="Vector_15" d="M34.375 37.8125C36.2735 37.8125 37.8125 36.2735 37.8125 34.375C37.8125 32.4765 36.2735 30.9375 34.375 30.9375C32.4765 30.9375 30.9375 32.4765 30.9375 34.375C30.9375 36.2735 32.4765 37.8125 34.375 37.8125Z" stroke="#F20101" stroke-width="2" stroke-linecap="square" stroke-linejoin="round"/>
<path id="Vector_16" d="M9.625 37.8125C11.5235 37.8125 13.0625 36.2735 13.0625 34.375C13.0625 32.4765 11.5235 30.9375 9.625 30.9375C7.72652 30.9375 6.1875 32.4765 6.1875 34.375C6.1875 36.2735 7.72652 37.8125 9.625 37.8125Z" stroke="#F20101" stroke-width="2" stroke-linecap="square" stroke-linejoin="round"/>
</g>
</g>
<defs>
<clipPath id="clip0_451_408">
<rect width="44" height="44" fill="white"/>
</clipPath>
</defs>
</svg>
