<svg width="31" height="50" viewBox="0 0 31 50" fill="none" xmlns="http://www.w3.org/2000/svg">
<g id="Layer_1" clip-path="url(#clip0_451_461)">
<path id="Vector" d="M11.17 49.55C11.09 49.55 11.01 49.54 10.92 49.51C10.57 49.4 10.33 49.08 10.33 48.71V28.55H0.839963C0.529963 28.55 0.249963 28.38 0.099963 28.11C-0.040037 27.84 -0.030037 27.51 0.149963 27.25L18.42 0.370006C18.63 0.0700057 19.01 -0.0699942 19.36 0.0400058C19.71 0.150006 19.95 0.470006 19.95 0.840006V21H29.45C29.76 21 30.04 21.17 30.19 21.44C30.33 21.71 30.32 22.04 30.14 22.3L11.86 49.18C11.7 49.41 11.44 49.55 11.17 49.55ZM2.40996 26.88H11.17C11.63 26.88 12.01 27.25 12.01 27.72V46L27.87 22.67H19.11C18.65 22.67 18.27 22.3 18.27 21.83V3.55001L2.40996 26.88Z" fill="#F20101"/>
</g>
<defs>
<clipPath id="clip0_451_461">
<rect width="30.28" height="49.55" fill="white"/>
</clipPath>
</defs>
</svg>
