<svg width="48" height="48" viewBox="0 0 48 48" fill="none" xmlns="http://www.w3.org/2000/svg">
<g id="Tryb_izolacji" clip-path="url(#clip0_451_448)">
<g id="digital_key-encript">
<path id="Vector" d="M27.345 21.87C29.31 20.805 31.515 20.25 33.75 20.25C41.1525 20.25 47.25 26.3475 47.25 33.75C47.25 41.1525 41.1525 47.25 33.75 47.25C26.3475 47.25 20.25 41.1525 20.25 33.75C20.25 30.45 21.4575 27.2625 23.6475 24.795" stroke="#F20101" stroke-width="2" stroke-linecap="round" stroke-linejoin="round"/>
<path id="Vector_2" d="M27.75 21L7.5 0.75H0.75V7.5L3.75 10.5H7.5V14.25L9 15.75H12.75V19.5L15.75 22.5H18L21.75 26.25" stroke="#F20101" stroke-width="2" stroke-linecap="square" stroke-linejoin="round"/>
<path id="Vector_3" d="M7.73242 5.625L20.2499 18" stroke="#F20101" stroke-width="2" stroke-linecap="round" stroke-linejoin="round"/>
<path id="Vector_4" d="M33.75 16.5V9.75" stroke="#F20101" stroke-width="2" stroke-linecap="round" stroke-linejoin="round"/>
<path id="Vector_5" d="M33.75 9.75C34.9926 9.75 36 8.74264 36 7.5C36 6.25736 34.9926 5.25 33.75 5.25C32.5074 5.25 31.5 6.25736 31.5 7.5C31.5 8.74264 32.5074 9.75 33.75 9.75Z" stroke="#F20101" stroke-width="2" stroke-linecap="round" stroke-linejoin="round"/>
<path id="Vector_6" d="M41.25 18V13.5L45 10.5V5.25" stroke="#F20101" stroke-width="2" stroke-linecap="round" stroke-linejoin="round"/>
<path id="Vector_7" d="M45 5.25C46.2426 5.25 47.25 4.24264 47.25 3C47.25 1.75736 46.2426 0.75 45 0.75C43.7574 0.75 42.75 1.75736 42.75 3C42.75 4.24264 43.7574 5.25 45 5.25Z" stroke="#F20101" stroke-width="2" stroke-linecap="round" stroke-linejoin="round"/>
<path id="Vector_8" d="M16.5 33.75H9.75" stroke="#F20101" stroke-width="2" stroke-linecap="round" stroke-linejoin="round"/>
<path id="Vector_9" d="M7.5 36C8.74264 36 9.75 34.9926 9.75 33.75C9.75 32.5074 8.74264 31.5 7.5 31.5C6.25736 31.5 5.25 32.5074 5.25 33.75C5.25 34.9926 6.25736 36 7.5 36Z" stroke="#F20101" stroke-width="2" stroke-linecap="round" stroke-linejoin="round"/>
<path id="Vector_10" d="M18 41.25H13.5L10.5 45H5.25" stroke="#F20101" stroke-width="2" stroke-linecap="round" stroke-linejoin="round"/>
<path id="Vector_11" d="M3 47.25C4.24264 47.25 5.25 46.2426 5.25 45C5.25 43.7574 4.24264 42.75 3 42.75C1.75736 42.75 0.75 43.7574 0.75 45C0.75 46.2426 1.75736 47.25 3 47.25Z" stroke="#F20101" stroke-width="2" stroke-linecap="round" stroke-linejoin="round"/>
</g>
</g>
<defs>
<clipPath id="clip0_451_448">
<rect width="48" height="48" fill="white"/>
</clipPath>
</defs>
</svg>
