<svg width="49" height="49" viewBox="0 0 49 49" fill="none" xmlns="http://www.w3.org/2000/svg">
<g id="Tryb_izolacji" clip-path="url(#clip0_451_441)">
<g id="secure_transactions">
<path id="_Trazado_" d="M24.5 8.3606C24.5 8.3606 17.7319 12.005 11.4844 12.005V24.4923C11.4844 29.0554 13.743 33.32 17.5175 35.8848L24.5 40.6317L31.4825 35.8848C35.257 33.32 37.5156 29.0554 37.5156 24.4923V12.005C31.2681 12.005 24.5 8.3606 24.5 8.3606Z" stroke="#F20101" stroke-width="2" stroke-linecap="round" stroke-linejoin="round"/>
<path id="Vector" d="M45.9375 42.1094C47.206 42.1094 48.2344 41.081 48.2344 39.8125C48.2344 38.544 47.206 37.5156 45.9375 37.5156C44.669 37.5156 43.6406 38.544 43.6406 39.8125C43.6406 41.081 44.669 42.1094 45.9375 42.1094Z" stroke="#F20101" stroke-width="2" stroke-linecap="round" stroke-linejoin="round"/>
<path id="Vector_2" d="M3.0625 37.5156V31.3906L5.35938 28.3281V6.125C14.5469 6.125 24.5 0.765625 24.5 0.765625C24.5 0.765625 34.4531 6.125 43.6406 6.125V28.3281L45.9375 31.3906V37.5156" stroke="#F20101" stroke-width="2" stroke-linecap="round" stroke-linejoin="round"/>
<path id="Vector_3" d="M3.0625 42.1094C4.33103 42.1094 5.35938 41.081 5.35938 39.8125C5.35938 38.544 4.33103 37.5156 3.0625 37.5156C1.79397 37.5156 0.765625 38.544 0.765625 39.8125C0.765625 41.081 1.79397 42.1094 3.0625 42.1094Z" stroke="#F20101" stroke-width="2" stroke-linecap="round" stroke-linejoin="round"/>
<path id="_Trazado_-2" d="M7.14331 32.9219C8.63628 36.1988 11.0097 39.0622 14.0722 41.1447L24.5 48.2344L34.9278 41.1447C37.9903 39.0622 40.3638 36.1988 41.8567 32.9219" stroke="#F20101" stroke-width="2" stroke-linecap="round" stroke-linejoin="round"/>
</g>
</g>
<defs>
<clipPath id="clip0_451_441">
<rect width="49" height="49" fill="white"/>
</clipPath>
</defs>
</svg>
