<svg width="52" height="52" viewBox="0 0 52 52" fill="none" xmlns="http://www.w3.org/2000/svg">
<g id="Tryb_izolacji" clip-path="url(#clip0_451_382)">
<g id="block_reward">
<path id="Vector" d="M34.9049 35.75L45.7111 29.5344C47.4499 28.5269 49.7005 29.1281 50.6999 30.875C51.7074 32.6138 51.1061 34.8644 49.3593 35.8719L33.5886 44.8581C32.8574 45.2806 32.0205 45.5 31.1755 45.5H19.1993C18.3136 45.5 17.4524 45.7438 16.6968 46.1906L13.7961 47.9294" stroke="#F20101" stroke-width="2" stroke-linecap="round" stroke-linejoin="round"/>
<path id="Vector_2" d="M21.9376 37.375H31.2813C33.2882 37.375 34.9376 35.7338 34.9376 33.7188C34.9376 31.7037 33.2963 30.0625 31.2813 30.0625H18.0863C17.1519 30.0625 16.2419 30.3306 15.4619 30.8262L6.49194 36.5625" stroke="#F20101" stroke-width="2" stroke-linecap="round" stroke-linejoin="round"/>
<path id="Vector_3" d="M0.8125 36.5625L4.875 34.125L14.6169 49.5625L12.1875 51.1875" stroke="#F20101" stroke-width="2" stroke-linecap="round" stroke-linejoin="round"/>
<path id="Vector_4" d="M26.8125 0.8125V4.0625" stroke="#F20101" stroke-width="2" stroke-linecap="round" stroke-linejoin="round"/>
<path id="Vector_5" d="M18.6875 4.0625V7.3125" stroke="#F20101" stroke-width="2" stroke-linecap="round" stroke-linejoin="round"/>
<path id="Vector_6" d="M34.9375 4.875V8.125" stroke="#F20101" stroke-width="2" stroke-linecap="round" stroke-linejoin="round"/>
<path id="Vector_7" d="M18.4844 26.8125C17.0869 25.0169 16.25 22.7662 16.25 20.3125C16.25 14.4788 20.9788 9.75 26.8125 9.75C32.6462 9.75 37.375 14.4788 37.375 20.3125C37.375 22.7662 36.5381 25.0169 35.1406 26.8125" stroke="#F20101" stroke-width="2" stroke-linecap="round" stroke-linejoin="round"/>
</g>
</g>
<defs>
<clipPath id="clip0_451_382">
<rect width="52" height="52" fill="white"/>
</clipPath>
</defs>
</svg>
