<svg width="18" height="16" viewBox="0 0 18 16" fill="none" xmlns="http://www.w3.org/2000/svg">
<g id="Tryb_izolacji" clip-path="url(#clip0_451_362)">
<path id="Vector" d="M0.271703 7.44256C2.11327 6.3539 4.16901 5.44545 6.08905 4.53186C9.39353 3.03606 12.7107 1.566 16.0618 0.197815C16.7139 -0.035364 17.8852 -0.263394 18 0.773408C17.9369 2.24126 17.6785 3.70065 17.501 5.15968C17.0504 8.36865 16.5299 11.5662 16.0223 14.7649C15.8476 15.8304 14.604 16.3817 13.8083 15.6998C11.8961 14.3136 9.96957 12.941 8.08174 11.5228C7.4632 10.8479 8.03719 9.87991 8.58925 9.39847C10.1639 7.73274 11.8341 6.31712 13.3268 4.56533C13.7291 3.52191 12.5397 4.4013 12.1473 4.67089C9.99116 6.26526 7.88813 7.95747 5.61513 9.35875C4.45378 10.0443 3.10053 9.45842 1.93987 9.07592C0.899494 8.6136 -0.625436 8.14761 0.271703 7.44256Z" fill="#BBBBBB"/>
</g>
<defs>
<clipPath id="clip0_451_362">
<rect width="18" height="16" fill="white"/>
</clipPath>
</defs>
</svg>
