<svg width="177" height="64" viewBox="0 0 177 64" fill="none" xmlns="http://www.w3.org/2000/svg">
<g id="Tryb_izolacji" clip-path="url(#clip0_451_292)">
<path id="Vector" fill-rule="evenodd" clip-rule="evenodd" d="M54.5499 20.3856C56.3582 23.8652 57.3796 27.8117 57.3796 32C57.3796 36.1883 56.3582 40.1348 54.5499 43.6144H56.4838C58.1665 40.0959 59.1097 36.1577 59.1097 32C59.1097 27.8423 58.1665 23.9041 56.4838 20.3856H54.5499ZM6.55779 32C6.55779 27.8145 7.57913 23.8652 9.38742 20.3856H7.45356C5.77085 23.9041 4.82764 27.8423 4.82764 32C4.82764 36.1577 5.77085 40.0959 7.45356 43.6144H9.38742C7.57913 40.1348 6.55779 36.1883 6.55779 32Z" fill="#ED1C24"/>
<path id="Vector_2" fill-rule="evenodd" clip-rule="evenodd" d="M32.6609 49.2645V63.9972H31.2795V49.2645C31.5084 49.2729 31.7372 49.2784 31.9688 49.2784C32.2004 49.2784 32.4293 49.2729 32.6581 49.2645H32.6609Z" fill="#ED1C24"/>
<path id="Vector_3" fill-rule="evenodd" clip-rule="evenodd" d="M31.2795 0H32.6609V14.7327C32.432 14.7243 32.2032 14.7188 31.9716 14.7188C31.74 14.7188 31.5112 14.7243 31.2823 14.7327V0H31.2795Z" fill="#ED1C24"/>
<path id="Vector_4" fill-rule="evenodd" clip-rule="evenodd" d="M49.3064 31.3135H63.9401V32.6893H49.3064C49.3148 32.4614 49.3204 32.2335 49.3204 32.0028C49.3204 31.7721 49.3148 31.5442 49.3064 31.3163V31.3135Z" fill="#ED1C24"/>
<path id="Vector_5" fill-rule="evenodd" clip-rule="evenodd" d="M0 32.6864V31.3107H14.6337C14.6254 31.5386 14.6198 31.7665 14.6198 31.9972C14.6198 32.2279 14.6254 32.4558 14.6337 32.6837H0V32.6864Z" fill="#ED1C24"/>
<path id="Vector_6" fill-rule="evenodd" clip-rule="evenodd" d="M10.2331 32C10.2331 20.0466 19.9666 10.3526 31.9688 10.3526C43.971 10.3526 53.7045 20.0466 53.7045 32C53.7045 43.9535 43.971 53.6474 31.9688 53.6474C19.9666 53.6474 10.2331 43.9535 10.2331 32ZM55.3565 32C55.3565 19.1378 44.8835 8.70734 31.9688 8.70734C19.054 8.70734 8.58105 19.1378 8.58105 32C8.58105 44.8623 19.054 55.2927 31.9688 55.2927C44.8835 55.2927 55.3565 44.8623 55.3565 32Z" fill="#ED1C24"/>
<path id="Vector_7" fill-rule="evenodd" clip-rule="evenodd" d="M20.3098 9.51049C23.8036 7.70955 27.7662 6.69236 31.9716 6.69236C36.177 6.69236 40.1396 7.70955 43.6334 9.51049V7.58449C40.1005 5.90862 36.1463 4.96924 31.9716 4.96924C27.7969 4.96924 23.8427 5.90862 20.3098 7.58449V9.51049ZM31.9716 57.3076C27.769 57.3076 23.8036 56.2904 20.3098 54.4895V56.4155C23.8427 58.0913 27.7969 59.0307 31.9716 59.0307C36.1463 59.0307 40.1005 58.0913 43.6334 56.4155V54.4895C40.1396 56.2904 36.177 57.3076 31.9716 57.3076Z" fill="#ED1C24"/>
<path id="Vector_8" d="M25.7374 31.5331L18.7666 27.4754V43.8145L22.6929 41.5355V34.3207L25.7402 36.091L45.1737 24.7768V20.2189L25.7374 31.5331Z" fill="#ED1C24"/>
<path id="Vector_9" d="M29.6414 26.7222L18.7666 20.3912V24.9519L25.7263 29.0012L29.6414 26.7222Z" fill="#ED1C24"/>
<path id="Vector_10" d="M31.818 39.6317L41.2445 34.1456V41.5355L45.1736 43.8145V27.3031L27.9028 37.35L31.818 39.6317Z" fill="#ED1C24"/>
<path id="Vector_11" d="M74.4468 29.7655V15.5637H78.8615L82.1236 23.54H82.4948L85.7179 15.5637H90.2107V29.7655H87.0462V17.6453L87.4955 17.6842L83.7254 26.8862H80.6781L76.8885 17.6842L77.3769 17.6453V29.7655H74.4468Z" fill="white"/>
<path id="Vector_12" d="M96.2857 30.0379C95.5183 30.0379 94.843 29.9017 94.2653 29.6293C93.6849 29.357 93.2328 28.9651 92.9063 28.4537C92.5798 27.9423 92.418 27.3281 92.418 26.6139C92.418 25.8357 92.6189 25.1965 93.0235 24.699C93.4282 24.1987 93.9946 23.8291 94.723 23.5901C95.4513 23.3511 96.2913 23.2316 97.2429 23.2316H99.5283V24.963H97.2233C96.6764 24.963 96.2578 25.0964 95.9648 25.3632C95.6718 25.63 95.5239 25.9886 95.5239 26.4416C95.5239 26.8696 95.6718 27.217 95.9648 27.4838C96.2578 27.7506 96.6764 27.8812 97.2233 27.8812C97.5749 27.8812 97.8903 27.8201 98.1721 27.695C98.4512 27.5727 98.6828 27.3615 98.8642 27.0641C99.0456 26.7667 99.1516 26.3499 99.1767 25.819L99.919 26.5972C99.8548 27.3365 99.6734 27.959 99.3832 28.4648C99.0902 28.9707 98.6856 29.3598 98.1721 29.6321C97.6586 29.9045 97.028 30.0407 96.2857 30.0407V30.0379ZM99.7041 29.7655V26.6139H99.1767V23.1899C99.1767 22.6451 99.0456 22.2366 98.786 21.9642C98.5237 21.6919 98.1079 21.5557 97.5359 21.5557C97.2484 21.5557 96.8717 21.5612 96.4029 21.5751C95.9341 21.589 95.4513 21.6085 94.9574 21.6335C94.4635 21.6585 94.0142 21.6863 93.6095 21.7113V19.085C93.9081 19.0599 94.2597 19.0322 94.6644 19.0071C95.069 18.9821 95.4848 18.9627 95.9145 18.9488C96.3443 18.9349 96.7489 18.9293 97.1257 18.9293C98.2196 18.9293 99.1404 19.085 99.8911 19.3962C100.639 19.7075 101.208 20.1772 101.599 20.8081C101.99 21.4362 102.185 22.2449 102.185 23.2288V29.7655H99.7041Z" fill="white"/>
<path id="Vector_13" d="M104.842 29.7655V19.1044H107.322V23.6762H107.264C107.264 22.1726 107.585 21.0109 108.229 20.1938C108.874 19.3767 109.809 18.9682 111.031 18.9682H111.441V21.6529H110.66C109.8 21.6529 109.136 21.8836 108.668 22.3422C108.199 22.8035 107.964 23.4678 107.964 24.3377V29.7655H104.839H104.842Z" fill="white"/>
<path id="Vector_14" d="M113.065 29.7655V15.5637H116.191V29.7655H113.065ZM120.606 29.7655L117.226 24.7851H115.722L120.078 19.1044H123.36L119.258 24.396L119.297 22.8786L124.122 29.7655H120.606Z" fill="white"/>
<path id="Vector_15" d="M129.318 30.0962C127.794 30.0962 126.602 29.7849 125.743 29.1624C124.883 28.5398 124.429 27.6644 124.375 26.536H127.149C127.202 26.8723 127.406 27.1752 127.766 27.4393C128.123 27.7061 128.662 27.8395 129.376 27.8395C129.923 27.8395 130.375 27.745 130.735 27.5588C131.095 27.3726 131.274 27.1002 131.274 26.75C131.274 26.4387 131.137 26.1886 130.864 25.9996C130.59 25.8106 130.102 25.6772 129.399 25.6022L128.559 25.5244C127.269 25.3937 126.304 25.038 125.659 24.4544C125.015 23.8707 124.694 23.1259 124.694 22.2171C124.694 21.4639 124.883 20.8358 125.26 20.33C125.637 19.8242 126.161 19.4406 126.831 19.1822C127.501 18.9237 128.266 18.7931 129.125 18.7931C130.506 18.7931 131.62 19.0932 132.465 19.6963C133.311 20.2994 133.755 21.1721 133.794 22.3144H131.02C130.967 21.9642 130.785 21.6696 130.473 21.4278C130.16 21.1888 129.697 21.0693 129.086 21.0693C128.603 21.0693 128.218 21.161 127.933 21.3416C127.646 21.5223 127.504 21.7696 127.504 22.0809C127.504 22.3922 127.626 22.6062 127.875 22.7618C128.12 22.9175 128.525 23.0286 129.086 23.0926L129.926 23.1704C131.24 23.3121 132.264 23.6762 132.993 24.2598C133.721 24.8435 134.087 25.6272 134.087 26.6138C134.087 27.3281 133.891 27.9451 133.501 28.4731C133.11 28.9984 132.557 29.4014 131.84 29.6793C131.123 29.9572 130.283 30.099 129.32 30.099L129.318 30.0962Z" fill="white"/>
<path id="Vector_16" d="M136.115 29.7655V19.1044H138.596V23.6957H138.42C138.42 22.6062 138.557 21.6974 138.831 20.972C139.104 20.2466 139.514 19.6991 140.061 19.3267C140.608 18.9571 141.278 18.7709 142.073 18.7709H142.21C143.017 18.7709 143.692 18.9571 144.233 19.3267C144.775 19.6964 145.182 20.2439 145.464 20.972C145.743 21.6974 145.882 22.6062 145.882 23.6957H145.121C145.121 22.6062 145.26 21.6974 145.542 20.972C145.821 20.2466 146.234 19.6991 146.784 19.3267C147.331 18.9571 148.001 18.7709 148.796 18.7709H148.933C149.739 18.7709 150.42 18.9571 150.972 19.3267C151.525 19.6964 151.946 20.2439 152.234 20.972C152.521 21.6974 152.664 22.6062 152.664 23.6957V29.7655H149.538V23.5206C149.538 22.9369 149.385 22.4645 149.08 22.1004C148.773 21.7363 148.341 21.5557 147.783 21.5557C147.225 21.5557 146.778 21.7419 146.455 22.1115C146.131 22.4811 145.966 22.9703 145.966 23.5817V29.7683H142.821V23.5233C142.821 22.9397 142.668 22.4672 142.364 22.1032C142.057 21.7391 141.632 21.5584 141.083 21.5584C140.533 21.5584 140.061 21.7446 139.735 22.1143C139.408 22.4839 139.246 22.9731 139.246 23.5845V29.771H136.121L136.115 29.7655Z" fill="white"/>
<path id="Vector_17" d="M158.365 30.0379C157.597 30.0379 156.922 29.9017 156.344 29.6293C155.764 29.357 155.312 28.9651 154.985 28.4537C154.659 27.9423 154.497 27.3281 154.497 26.6139C154.497 25.8357 154.698 25.1965 155.102 24.699C155.507 24.1987 156.073 23.8291 156.802 23.5901C157.53 23.3511 158.37 23.2316 159.322 23.2316H161.607V24.963H159.302C158.755 24.963 158.337 25.0964 158.044 25.3632C157.751 25.63 157.603 25.9886 157.603 26.4416C157.603 26.8696 157.751 27.217 158.044 27.4838C158.337 27.7506 158.755 27.8812 159.302 27.8812C159.654 27.8812 159.969 27.8201 160.251 27.695C160.53 27.5727 160.762 27.3615 160.943 27.0641C161.124 26.7667 161.23 26.3499 161.256 25.819L161.998 26.5972C161.934 27.3365 161.752 27.959 161.462 28.4648C161.169 28.9707 160.764 29.3598 160.251 29.6321C159.738 29.9045 159.107 30.0407 158.365 30.0407V30.0379ZM161.783 29.7655V26.6139H161.256V23.1899C161.256 22.6451 161.124 22.2366 160.865 21.9642C160.603 21.6919 160.187 21.5557 159.615 21.5557C159.327 21.5557 158.951 21.5612 158.482 21.5751C158.013 21.589 157.53 21.6085 157.036 21.6335C156.542 21.6585 156.093 21.6863 155.688 21.7113V19.085C155.987 19.0599 156.339 19.0322 156.743 19.0071C157.148 18.9821 157.564 18.9627 157.993 18.9488C158.423 18.9349 158.828 18.9293 159.205 18.9293C160.298 18.9293 161.219 19.085 161.97 19.3962C162.718 19.7075 163.287 20.1772 163.678 20.8081C164.068 21.4362 164.264 22.2449 164.264 23.2288V29.7655H161.783Z" fill="white"/>
<path id="Vector_18" d="M166.92 29.7655V19.1044H169.401V23.6762H169.225C169.225 22.5868 169.365 21.678 169.647 20.9526C169.926 20.2272 170.353 19.6825 170.925 19.3184C171.497 18.9543 172.195 18.7737 173.015 18.7737H173.152C174.402 18.7737 175.356 19.1794 176.015 19.991C176.673 20.8025 177.003 22.0309 177.003 23.6762V29.7655H173.877V23.5011C173.877 22.9314 173.707 22.4645 173.369 22.1004C173.032 21.7363 172.574 21.5557 172.002 21.5557C171.43 21.5557 170.944 21.7419 170.587 22.1115C170.23 22.4812 170.049 22.9648 170.049 23.5595V29.7655H166.923H166.92Z" fill="white"/>
<path id="Vector_19" d="M79.4083 48.7559C78.1191 48.7559 77.0307 48.5503 76.1461 48.1417C75.2615 47.7332 74.589 47.1746 74.1341 46.4686C73.6793 45.7627 73.4504 44.9484 73.4504 44.0257H76.5563C76.5563 44.3898 76.6568 44.7261 76.8577 45.0373C77.0586 45.3486 77.3684 45.5987 77.787 45.7877C78.2028 45.9767 78.7441 46.0684 79.4083 46.0684C80.0083 46.0684 80.5078 45.9906 80.9124 45.835C81.317 45.6793 81.6212 45.4626 81.8305 45.1846C82.0398 44.9067 82.143 44.5843 82.143 44.2203C82.143 43.7672 81.9477 43.4059 81.557 43.1419C81.1664 42.8751 80.5357 42.7028 79.6622 42.6278L78.5879 42.5305C77.1675 42.4138 76.0345 41.9719 75.189 41.2076C74.3434 40.4433 73.9193 39.4317 73.9193 38.1727C73.9193 37.2639 74.1369 36.4801 74.575 35.8187C75.0104 35.1572 75.6215 34.6486 76.4001 34.2901C77.1814 33.9343 78.1051 33.7565 79.1739 33.7565C80.2929 33.7565 81.2557 33.9482 82.0565 34.329C82.8574 34.7125 83.4714 35.2489 83.9039 35.9437C84.3337 36.6385 84.5485 37.4501 84.5485 38.3839H81.4231C81.4231 38.0337 81.3394 37.7141 81.1691 37.4223C80.9989 37.1304 80.7506 36.8942 80.4157 36.7136C80.0836 36.5329 79.6706 36.4412 79.1739 36.4412C78.7051 36.4412 78.3116 36.519 77.9935 36.6747C77.6754 36.8303 77.4382 37.0415 77.2819 37.3055C77.1256 37.5723 77.0475 37.8614 77.0475 38.1727C77.0475 38.5756 77.1898 38.9258 77.4772 39.2232C77.7647 39.5206 78.2335 39.6957 78.8837 39.7485L79.9776 39.8458C81.0185 39.9375 81.9366 40.1598 82.7319 40.5183C83.5272 40.8741 84.1495 41.3604 84.5988 41.9774C85.048 42.5944 85.2713 43.342 85.2713 44.223C85.2713 45.104 85.0341 45.9239 84.5597 46.6076C84.0853 47.2913 83.41 47.8166 82.5393 48.1945C81.6659 48.5697 80.625 48.7587 79.4139 48.7587L79.4083 48.7559Z" fill="white"/>
<path id="Vector_20" d="M87.3 48.3863V37.7252H89.7809V42.297H89.6051C89.6051 41.2076 89.7446 40.2988 90.0236 39.5734C90.3027 38.848 90.7297 38.3033 91.3045 37.9392C91.8766 37.5751 92.5742 37.3945 93.3946 37.3945H93.5314C94.7816 37.3945 95.7359 37.8002 96.3917 38.6118C97.0503 39.4233 97.3796 40.6517 97.3796 42.297V48.3863H94.2541V42.1219C94.2541 41.5522 94.0839 41.0853 93.7463 40.7212C93.4086 40.3571 92.9509 40.1765 92.3789 40.1765C91.8068 40.1765 91.3213 40.3627 90.9641 40.7323C90.6041 41.102 90.4255 41.5855 90.4255 42.1803V48.3863H87.3Z" fill="white"/>
<path id="Vector_21" d="M99.1182 40.0209V37.7252H103.67V40.0209H99.1182ZM101.755 36.6747C101.169 36.6747 100.737 36.5218 100.458 36.2161C100.179 35.9104 100.036 35.5268 100.036 35.0572C100.036 34.5875 100.176 34.1845 100.458 33.8815C100.737 33.5758 101.169 33.423 101.755 33.423C102.341 33.423 102.774 33.5758 103.053 33.8815C103.332 34.1873 103.474 34.5791 103.474 35.0572C103.474 35.5352 103.335 35.9104 103.053 36.2161C102.774 36.5218 102.341 36.6747 101.755 36.6747ZM100.544 48.3863V37.7252H103.67V48.3863H100.544Z" fill="white"/>
<path id="Vector_22" d="M106.561 52.2772V37.7252H109.041V42.3359L108.709 42.3165C108.762 41.252 108.983 40.3543 109.373 39.6206C109.764 38.8869 110.292 38.3366 110.956 37.967C111.62 37.5973 112.368 37.4111 113.202 37.4111C113.944 37.4111 114.62 37.5473 115.225 37.8197C115.831 38.092 116.353 38.47 116.788 38.9564C117.223 39.4427 117.555 40.0125 117.784 40.6684C118.01 41.3243 118.125 42.0385 118.125 42.8195V43.267C118.125 44.0312 118.013 44.7483 117.793 45.4181C117.572 46.0851 117.248 46.6659 116.824 47.1579C116.4 47.6498 115.887 48.0361 115.281 48.3168C114.676 48.5975 113.983 48.7337 113.199 48.7337C112.415 48.7337 111.667 48.5697 111.023 48.2362C110.378 47.9055 109.862 47.3997 109.471 46.7188C109.08 46.0378 108.866 45.1735 108.826 44.123L109.686 45.2902V52.2744H106.561V52.2772ZM112.323 46.1296C112.856 46.1296 113.322 45.9989 113.721 45.7405C114.117 45.482 114.427 45.1179 114.648 44.651C114.868 44.1841 114.98 43.6449 114.98 43.0363C114.98 42.4276 114.868 41.894 114.648 41.441C114.427 40.988 114.12 40.635 113.73 40.3821C113.339 40.1292 112.87 40.0014 112.323 40.0014C111.854 40.0014 111.411 40.1125 110.995 40.3321C110.579 40.5517 110.241 40.8685 109.987 41.277C109.733 41.6856 109.608 42.1803 109.608 42.7639V43.4837C109.608 44.0424 109.742 44.5176 110.007 44.9123C110.275 45.3069 110.615 45.6098 111.034 45.8155C111.45 46.024 111.879 46.1268 112.323 46.1268V46.1296Z" fill="white"/>
<path id="Vector_23" d="M125.196 48.7559C124.283 48.7559 123.48 48.6003 122.785 48.289C122.087 47.9778 121.51 47.5609 121.046 47.0328C120.583 46.5076 120.232 45.9184 119.992 45.2625C119.752 44.6066 119.632 43.9368 119.632 43.2475V42.8584C119.632 42.1442 119.752 41.4605 119.992 40.8074C120.232 40.1542 120.58 39.565 121.035 39.0481C121.49 38.5284 122.062 38.1171 122.743 37.8114C123.427 37.5056 124.205 37.3528 125.079 37.3528C126.226 37.3528 127.191 37.6085 127.981 38.1226C128.768 38.634 129.371 39.3038 129.786 40.1265C130.202 40.9491 130.412 41.8496 130.412 42.8223V43.8728H120.938V42.1025H128.517L127.501 42.9196C127.501 42.2831 127.409 41.7384 127.228 41.2854C127.046 40.8324 126.775 40.485 126.415 40.2432C126.058 40.0042 125.612 39.8847 125.079 39.8847C124.546 39.8847 124.069 40.0069 123.692 40.2543C123.312 40.5016 123.028 40.8602 122.832 41.3326C122.637 41.8051 122.539 42.386 122.539 43.0724C122.539 43.7089 122.631 44.2619 122.813 44.7372C122.994 45.2097 123.282 45.5765 123.672 45.8378C124.063 46.0962 124.571 46.2269 125.196 46.2269C125.768 46.2269 126.237 46.1157 126.602 45.8961C126.968 45.6766 127.214 45.4042 127.345 45.079H130.216C130.06 45.7933 129.753 46.427 129.298 46.9856C128.843 47.5442 128.268 47.9778 127.579 48.289C126.89 48.6003 126.095 48.7559 125.196 48.7559Z" fill="white"/>
<path id="Vector_24" d="M132.482 48.3863V37.7252H134.963V42.297H134.904C134.904 40.7934 135.225 39.6317 135.87 38.8146C136.514 37.9975 137.449 37.589 138.672 37.589H139.082V40.2737H138.3C137.441 40.2737 136.777 40.5044 136.308 40.9657C135.839 41.4271 135.605 42.0913 135.605 42.9585V48.3863H132.479H132.482Z" fill="white"/>
<path id="Vector_25" fill-rule="evenodd" clip-rule="evenodd" d="M173.83 48.8476H142.936L145.668 33.4257H176.559L173.83 48.8476Z" fill="#ED1C24"/>
<path id="Vector_26" d="M145.941 45.8794L147.635 36.3189H149.708L148.017 45.8794H145.944H145.941ZM147.755 45.8794L148.048 44.2286H150.264C150.66 44.2286 150.978 44.1258 151.212 43.9201C151.447 43.7144 151.597 43.4226 151.664 43.0419C151.731 42.6639 151.684 42.3721 151.522 42.172C151.36 41.9691 151.078 41.869 150.682 41.869H148.466L148.692 40.5934H150.805C151.461 40.5934 152.03 40.674 152.513 40.8324C152.993 40.9908 153.35 41.2465 153.581 41.5994C153.813 41.9524 153.875 42.4304 153.768 43.0307L153.735 43.2114C153.637 43.77 153.422 44.2508 153.093 44.651C152.764 45.0512 152.329 45.357 151.79 45.5682C151.251 45.7794 150.612 45.885 149.87 45.885H147.758L147.755 45.8794ZM148.525 41.5327L148.748 40.2682H150.612C151.017 40.2682 151.33 40.1654 151.547 39.9597C151.765 39.754 151.904 39.4789 151.966 39.1343C152.03 38.773 151.988 38.4895 151.846 38.2838C151.701 38.0782 151.424 37.9753 151.02 37.9753H149.156L149.449 36.3245H151.184C152.273 36.3245 153.068 36.5524 153.57 37.0082C154.073 37.464 154.248 38.1143 154.101 38.9564L154.067 39.1509C153.964 39.7346 153.732 40.2043 153.372 40.5572C153.012 40.9102 152.566 41.1603 152.033 41.3104C151.5 41.4605 150.911 41.5355 150.264 41.5355H148.528L148.525 41.5327Z" fill="white"/>
<path id="Vector_27" d="M159.355 46.0601C158.501 46.0601 157.781 45.9128 157.198 45.6155C156.615 45.3181 156.16 44.9262 155.833 44.4426C155.504 43.9563 155.289 43.431 155.186 42.8612C155.083 42.2943 155.08 41.7468 155.172 41.2215L155.222 40.938C155.326 40.3544 155.535 39.7735 155.847 39.2038C156.16 38.6313 156.57 38.1143 157.075 37.6502C157.58 37.1861 158.172 36.8136 158.853 36.5329C159.534 36.255 160.287 36.1133 161.116 36.1133C161.945 36.1133 162.651 36.2522 163.231 36.5329C163.812 36.8136 164.272 37.1833 164.615 37.6502C164.956 38.1143 165.185 38.634 165.299 39.2038C165.413 39.7763 165.419 40.3544 165.316 40.938L165.266 41.2215C165.174 41.7468 164.973 42.2915 164.666 42.8612C164.359 43.4282 163.954 43.9563 163.455 44.4426C162.955 44.929 162.361 45.3209 161.674 45.6155C160.988 45.9101 160.215 46.0601 159.361 46.0601H159.355ZM159.704 44.0869C160.153 44.0869 160.569 44.0091 160.957 43.8534C161.342 43.6978 161.688 43.4838 161.992 43.2086C162.296 42.9335 162.545 42.6167 162.737 42.2526C162.93 41.8913 163.064 41.505 163.136 41.0909C163.215 40.6518 163.217 40.2515 163.15 39.8847C163.081 39.5178 162.944 39.201 162.737 38.9286C162.531 38.6591 162.263 38.4506 161.934 38.3033C161.604 38.156 161.216 38.0838 160.767 38.0838C160.318 38.0838 159.905 38.156 159.523 38.3033C159.143 38.4506 158.8 38.6591 158.498 38.9286C158.197 39.201 157.946 39.5178 157.753 39.8847C157.558 40.2515 157.424 40.6518 157.346 41.0909C157.273 41.505 157.268 41.8913 157.335 42.2526C157.399 42.6139 157.536 42.9307 157.742 43.2086C157.949 43.4838 158.214 43.6978 158.54 43.8534C158.867 44.0091 159.255 44.0869 159.704 44.0869Z" fill="white"/>
<path id="Vector_28" d="M166.362 38.2394L166.689 36.394H174.137L173.81 38.2394H166.362ZM167.677 45.8128L169.064 37.9809H171.187L169.8 45.8128H167.677Z" fill="white"/>
</g>
<defs>
<clipPath id="clip0_451_292">
<rect width="177" height="64" fill="white"/>
</clipPath>
</defs>
</svg>
